<svg xmlns="http://www.w3.org/2000/svg" width="78" height="20" role="img" aria-label="Résumé">
  <g transform="translate(0,2)" fill="#8b949e">
    <path d="M2.75 14A1.75 1.75 0 0 1 1 12.25v-2.5a.75.75 0 0 1 1.5 0v2.5c0 .138.112.25.25.25h10.5a.25.25 0 0 0 .25-.25v-2.5a.75.75 0 0 1 1.5 0v2.5A1.75 1.75 0 0 1 13.25 14Z"/>
    <path d="M7.25 7.689V2a.75.75 0 0 1 1.5 0v5.689l1.97-1.969a.749.749 0 1 1 1.06 1.061l-3.25 3.25a.749.749 0 0 1-1.06 0L4.22 6.781a.749.749 0 1 1 1.06-1.061l1.97 1.969Z"/>
  </g>
  <text x="22" y="15" font-family="-apple-system,BlinkMacSystemFont,'Segoe UI',Helvetica,Arial,sans-serif" font-size="14" font-weight="600" fill="#4493f8">Résumé</text>
</svg>
