<svg xmlns="http://www.w3.org/2000/svg" width="112" height="32" role="img" aria-label="Résumé">
  <rect x="0.5" y="0.5" width="111" height="31" rx="6" fill="#21262d" stroke="#30363d"/>
  <g transform="translate(14, 8)" fill="#c9d1d9">
    <path d="M2.75 14A1.75 1.75 0 0 1 1 12.25v-2.5a.75.75 0 0 1 1.5 0v2.5c0 .138.112.25.25.25h10.5a.25.25 0 0 0 .25-.25v-2.5a.75.75 0 0 1 1.5 0v2.5A1.75 1.75 0 0 1 13.25 14Z"/>
    <path d="M7.25 7.689V2a.75.75 0 0 1 1.5 0v5.689l1.97-1.969a.749.749 0 1 1 1.06 1.06l-3.25 3.25a.749.749 0 0 1-1.06 0L4.22 6.78a.749.749 0 1 1 1.06-1.06l1.97 1.969Z"/>
  </g>
  <text x="40" y="21" font-family="-apple-system,BlinkMacSystemFont,'Segoe UI',Helvetica,Arial,sans-serif" font-size="14" font-weight="500" fill="#c9d1d9">Résumé</text>
</svg>
